<svg width="26" height="26" viewBox="0 0 26 26" fill="none" xmlns="http://www.w3.org/2000/svg">
<path d="M15.6488 12.9772L25.4787 3.14732C25.817 2.79706 26.0042 2.32794 25.9999 1.84101C25.9957 1.35407 25.8004 0.888274 25.4561 0.543944C25.1117 0.199615 24.6459 0.00430155 24.159 7.02049e-05C23.6721 -0.00416115 23.2029 0.183028 22.8527 0.521322L13.0228 10.3512L3.19296 0.521322C2.8427 0.183028 2.37358 -0.00416115 1.88665 7.02049e-05C1.39971 0.00430155 0.933916 0.199615 0.589586 0.543944C0.245257 0.888274 0.0499434 1.35407 0.0457121 1.84101C0.0414807 2.32794 0.22867 2.79706 0.566964 3.14732L10.3968 12.9772L0.566964 22.807C0.389588 22.9784 0.248106 23.1833 0.150775 23.4099C0.0534444 23.6364 0.00221292 23.8801 7.01196e-05 24.1267C-0.00207268 24.3733 0.0449162 24.6179 0.138295 24.8461C0.231674 25.0743 0.369572 25.2817 0.543944 25.4561C0.718317 25.6304 0.92567 25.7683 1.15391 25.8617C1.38214 25.9551 1.62669 26.0021 1.87328 25.9999C2.11987 25.9978 2.36356 25.9466 2.59014 25.8492C2.81672 25.7519 3.02165 25.6104 3.19296 25.433L13.0228 15.6032L22.8527 25.433C23.2029 25.7713 23.6721 25.9585 24.159 25.9543C24.6459 25.9501 25.1117 25.7547 25.4561 25.4104C25.8004 25.0661 25.9957 24.6003 25.9999 24.1134C26.0042 23.6264 25.817 23.1573 25.4787 22.807L15.6488 12.9772Z" fill="black"/>
</svg>
