<svg width="24" height="27" viewBox="0 0 24 27" fill="none" xmlns="http://www.w3.org/2000/svg">
<path d="M18.5625 0H5.0625C3.71984 0 2.43217 0.533369 1.48277 1.48277C0.533369 2.43217 0 3.71984 0 5.0625V21.9375C0 23.2802 0.533369 24.5678 1.48277 25.5172C2.43217 26.4666 3.71984 27 5.0625 27H18.5625C19.9052 27 21.1928 26.4666 22.1422 25.5172C23.0916 24.5678 23.625 23.2802 23.625 21.9375V5.0625C23.625 3.71984 23.0916 2.43217 22.1422 1.48277C21.1928 0.533369 19.9052 0 18.5625 0V0ZM20.25 21.9375C20.25 22.3851 20.0722 22.8143 19.7557 23.1307C19.4393 23.4472 19.0101 23.625 18.5625 23.625H5.0625C4.61495 23.625 4.18572 23.4472 3.86926 23.1307C3.55279 22.8143 3.375 22.3851 3.375 21.9375V5.0625C3.375 4.61495 3.55279 4.18572 3.86926 3.86926C4.18572 3.55279 4.61495 3.375 5.0625 3.375H18.5625C19.0101 3.375 19.4393 3.55279 19.7557 3.86926C20.0722 4.18572 20.25 4.61495 20.25 5.0625V21.9375Z" fill="black"/>
<path d="M16.0312 8.4375H7.59375C7.36997 8.4375 7.15536 8.34861 6.99713 8.19037C6.8389 8.03214 6.75 7.81753 6.75 7.59375C6.75 7.36997 6.8389 7.15536 6.99713 6.99713C7.15536 6.8389 7.36997 6.75 7.59375 6.75H16.0312C16.255 6.75 16.4696 6.8389 16.6279 6.99713C16.7861 7.15536 16.875 7.36997 16.875 7.59375C16.875 7.81753 16.7861 8.03214 16.6279 8.19037C16.4696 8.34861 16.255 8.4375 16.0312 8.4375ZM16.0312 11.8125H7.59375C7.36997 11.8125 7.15536 11.7236 6.99713 11.5654C6.8389 11.4071 6.75 11.1925 6.75 10.9688C6.75 10.745 6.8389 10.5304 6.99713 10.3721C7.15536 10.2139 7.36997 10.125 7.59375 10.125H16.0312C16.255 10.125 16.4696 10.2139 16.6279 10.3721C16.7861 10.5304 16.875 10.745 16.875 10.9688C16.875 11.1925 16.7861 11.4071 16.6279 11.5654C16.4696 11.7236 16.255 11.8125 16.0312 11.8125ZM16.0312 15.1875H7.59375C7.36997 15.1875 7.15536 15.0986 6.99713 14.9404C6.8389 14.7821 6.75 14.5675 6.75 14.3438C6.75 14.12 6.8389 13.9054 6.99713 13.7471C7.15536 13.5889 7.36997 13.5 7.59375 13.5H16.0312C16.255 13.5 16.4696 13.5889 16.6279 13.7471C16.7861 13.9054 16.875 14.12 16.875 14.3438C16.875 14.5675 16.7861 14.7821 16.6279 14.9404C16.4696 15.0986 16.255 15.1875 16.0312 15.1875ZM10.9688 18.5625H7.59375C7.36997 18.5625 7.15536 18.4736 6.99713 18.3154C6.8389 18.1571 6.75 17.9425 6.75 17.7188C6.75 17.495 6.8389 17.2804 6.99713 17.1221C7.15536 16.9639 7.36997 16.875 7.59375 16.875H10.9688C11.1925 16.875 11.4071 16.9639 11.5654 17.1221C11.7236 17.2804 11.8125 17.495 11.8125 17.7188C11.8125 17.9425 11.7236 18.1571 11.5654 18.3154C11.4071 18.4736 11.1925 18.5625 10.9688 18.5625Z" fill="black"/>
</svg>
