<svg width="27" height="18" viewBox="0 0 27 18" fill="none" xmlns="http://www.w3.org/2000/svg">
<path d="M19.2857 7.2H7.71429C7.2028 7.2 6.71226 7.38964 6.35058 7.72721C5.9889 8.06477 5.78572 8.52261 5.78572 9C5.78572 9.47739 5.9889 9.93523 6.35058 10.2728C6.71226 10.6104 7.2028 10.8 7.71429 10.8H19.2857C19.7972 10.8 20.2877 10.6104 20.6494 10.2728C21.0111 9.93523 21.2143 9.47739 21.2143 9C21.2143 8.52261 21.0111 8.06477 20.6494 7.72721C20.2877 7.38964 19.7972 7.2 19.2857 7.2ZM13.5 14.4H7.71429C7.2028 14.4 6.71226 14.5896 6.35058 14.9272C5.9889 15.2648 5.78572 15.7226 5.78572 16.2C5.78572 16.6774 5.9889 17.1352 6.35058 17.4728C6.71226 17.8104 7.2028 18 7.71429 18H13.5C14.0115 18 14.502 17.8104 14.8637 17.4728C15.2254 17.1352 15.4286 16.6774 15.4286 16.2C15.4286 15.7226 15.2254 15.2648 14.8637 14.9272C14.502 14.5896 14.0115 14.4 13.5 14.4ZM25.0714 0H7.71429C7.2028 0 6.71226 0.189642 6.35058 0.527208C5.9889 0.864773 5.78572 1.32261 5.78572 1.8C5.78572 2.27739 5.9889 2.73523 6.35058 3.07279C6.71226 3.41036 7.2028 3.6 7.71429 3.6H25.0714C25.5829 3.6 26.0735 3.41036 26.4351 3.07279C26.7968 2.73523 27 2.27739 27 1.8C27 1.32261 26.7968 0.864773 26.4351 0.527208C26.0735 0.189642 25.5829 0 25.0714 0ZM1.92857 0C1.54714 0 1.17427 0.105568 0.857115 0.303355C0.539963 0.501141 0.292774 0.782263 0.146805 1.11117C0.000835614 1.44008 -0.0373565 1.802 0.0370578 2.15116C0.111472 2.50033 0.295151 2.82106 0.564866 3.07279C0.834582 3.32453 1.17822 3.49596 1.55233 3.56541C1.92643 3.63487 2.3142 3.59922 2.6666 3.46298C3.01901 3.32675 3.32021 3.09603 3.53212 2.80003C3.74404 2.50402 3.85714 2.15601 3.85714 1.8C3.85714 1.32261 3.65396 0.864773 3.29228 0.527208C2.9306 0.189642 2.44006 0 1.92857 0ZM1.92857 7.2C1.54714 7.2 1.17427 7.30557 0.857115 7.50335C0.539963 7.70114 0.292774 7.98226 0.146805 8.31117C0.000835614 8.64008 -0.0373565 9.002 0.0370578 9.35116C0.111472 9.70033 0.295151 10.0211 0.564866 10.2728C0.834582 10.5245 1.17822 10.696 1.55233 10.7654C1.92643 10.8349 2.3142 10.7992 2.6666 10.663C3.01901 10.5267 3.32021 10.296 3.53212 10C3.74404 9.70402 3.85714 9.35601 3.85714 9C3.85714 8.52261 3.65396 8.06477 3.29228 7.72721C2.9306 7.38964 2.44006 7.2 1.92857 7.2ZM1.92857 14.4C1.54714 14.4 1.17427 14.5056 0.857115 14.7034C0.539963 14.9011 0.292774 15.1823 0.146805 15.5112C0.000835614 15.8401 -0.0373565 16.202 0.0370578 16.5512C0.111472 16.9003 0.295151 17.2211 0.564866 17.4728C0.834582 17.7245 1.17822 17.896 1.55233 17.9654C1.92643 18.0349 2.3142 17.9992 2.6666 17.863C3.01901 17.7267 3.32021 17.496 3.53212 17.2C3.74404 16.904 3.85714 16.556 3.85714 16.2C3.85714 15.7226 3.65396 15.2648 3.29228 14.9272C2.9306 14.5896 2.44006 14.4 1.92857 14.4Z" fill="black"/>
</svg>
