<svg width="27" height="27" viewBox="0 0 27 27" fill="none" xmlns="http://www.w3.org/2000/svg">
<path d="M13.5 0C10.83 0 8.21987 0.791761 5.99981 2.27516C3.77974 3.75856 2.04941 5.86697 1.02763 8.33377C0.00584929 10.8006 -0.261496 13.515 0.259405 16.1337C0.780305 18.7525 2.06606 21.1579 3.95406 23.0459C5.84207 24.9339 8.24754 26.2197 10.8663 26.7406C13.485 27.2615 16.1994 26.9942 18.6662 25.9724C21.133 24.9506 23.2414 23.2203 24.7248 21.0002C26.2082 18.7801 27 16.17 27 13.5C26.996 9.92081 25.5724 6.48937 23.0415 3.9585C20.5106 1.42763 17.0792 0.00401981 13.5 0V0ZM22.2126 8.36662H19.5936C19.2337 6.93931 18.634 5.58352 17.82 4.35712C19.6508 5.22637 21.1803 6.62251 22.2126 8.36662ZM23.625 13.5C23.6226 14.6252 23.4315 15.7421 23.0597 16.8041H19.9868C20.1622 15.7115 20.2503 14.6066 20.25 13.5C20.2503 12.3934 20.1622 11.2885 19.9868 10.1959H23.0597C23.4315 11.2579 23.6226 12.3748 23.625 13.5ZM13.5 23.625C11.6859 23.625 10.0626 21.6 9.16819 18.6334H17.8335C16.9374 21.6 15.3141 23.625 13.5 23.625ZM8.73113 16.8041C8.33893 14.6188 8.33893 12.3812 8.73113 10.1959H18.2672C18.463 11.2864 18.5619 12.3921 18.5625 13.5C18.5624 14.6079 18.4642 15.7136 18.2689 16.8041H8.73113ZM3.37501 13.5C3.37738 12.3748 3.56847 11.2579 3.94032 10.1959H7.01326C6.66212 12.3846 6.66212 14.6154 7.01326 16.8041H3.94032C3.56847 15.7421 3.37738 14.6252 3.37501 13.5ZM13.5 3.375C15.3141 3.375 16.9374 5.4 17.8318 8.36662H9.16819C10.0626 5.4 11.6859 3.375 13.5 3.375ZM9.18 4.35712C8.36598 5.58352 7.76626 6.93931 7.40644 8.36662H4.78744C5.81967 6.62251 7.3492 5.22637 9.18 4.35712ZM4.7925 18.6334H7.40644C7.76626 20.0607 8.36598 21.4165 9.18 22.6429C7.3492 21.7736 5.81967 20.3775 4.78744 18.6334H4.7925ZM17.8251 22.6429C18.6391 21.4165 19.2388 20.0607 19.5986 18.6334H22.2176C21.1841 20.3782 19.6527 21.7745 17.82 22.6429H17.8251Z" fill="black"/>
</svg>
